<svg id="Layer_1" enable-background="new 0 0 512 512" height="512" viewBox="0 0 512 512" width="512" xmlns="http://www.w3.org/2000/svg"><path d="m448.5 412.055c0 12.62-10.27 22.88-22.89 22.88s-22.88-10.26-22.88-22.88 10.26-22.89 22.88-22.89 22.89 10.27 22.89 22.89zm-291.93-22.89c-12.62 0-22.89 10.27-22.89 22.89s10.27 22.88 22.89 22.88c12.61 0 22.88-10.26 22.88-22.88s-10.27-22.89-22.88-22.89zm297.88-170.95c-2.41-4.5-9.27-8.59-14.37-8.59h-26.68v48.6h62.55zm-415.95-47.33c-4.15 0-7.5 3.36-7.5 7.5s3.35 7.5 7.5 7.5h50.7v-7.84c0-2.51.44-4.93 1.25-7.16zm0 60.76c-4.15 0-7.5 3.36-7.5 7.5s3.35 7.5 7.5 7.5h50.7v-15zm29.11-30.38c-4.14 0-7.5 3.36-7.5 7.5s3.36 7.5 7.5 7.5h21.59v-15zm245.18-51.7c0 39.98-32.53 72.5-72.5 72.5-39.98 0-72.5-32.52-72.5-72.5s32.52-72.5 72.5-72.5c39.97 0 72.5 32.52 72.5 72.5zm-41.39 17.01-23.61-20.44v-29.69c0-4.14-3.36-7.5-7.5-7.5-4.15 0-7.5 3.36-7.5 7.5v33.12c0 2.18.94 4.25 2.59 5.67l26.2 22.68c1.42 1.23 3.17 1.83 4.91 1.83 2.1 0 4.19-.88 5.67-2.59 2.71-3.13 2.37-7.87-.76-10.58zm134.5 106.65c-4.14 0-7.5-3.35-7.5-7.5v-56.1h-28.17v194.93h18.25c3.49-17.31 18.81-30.39 37.13-30.39s33.65 13.08 37.14 30.39h18.25v-131.33zm-316.7 73.17v58.16h30.23c3.49-17.31 18.82-30.39 37.14-30.39s33.64 13.08 37.13 30.39h161.53v-58.16zm245.05-189.33h-6.79c-3.81 44.75-41.46 80-87.17 80-45.72 0-83.36-35.25-87.17-80h-42.94c-9.06 0-16.79 5.77-19.73 13.82h20.83c4.14 0 7.5 3.36 7.5 7.5s-3.36 7.5-7.5 7.5h-22.08v15.38h51.19c4.15 0 7.5 3.36 7.5 7.5s-3.35 7.5-7.5 7.5h-51.19v15.38h22.08c4.14 0 7.5 3.36 7.5 7.5s-3.36 7.5-7.5 7.5h-22.08v84.75h266.03v-153.35c0-11.57-9.42-20.98-20.98-20.98z"/></svg>