<svg id="Layer_1" enable-background="new 0 0 512 512" viewBox="0 0 512 512" xmlns="http://www.w3.org/2000/svg"><path d="m257 185.4c-74.5 0-135.1 60.6-135.1 135.1s60.6 135.1 135.1 135.1 135.1-60.6 135.1-135.1c0-74.4-60.6-135.1-135.1-135.1zm81.5 192.1c-2.6 12.8-13.6 21.8-26.7 21.8h-96.7c-4.3 9.4-12.5 13.5-19.8 13.5-.8 0-1.6 0-2.3-.1-9.1-1.1-18.8-9.2-18.8-24.4v-100.2c0-15.7 10-23.4 19.9-24.1 9.3-.7 17.5 4.4 21.1 12.4h9.7c.5 0 .8-.2 1-.7l19.5-46.6c2.9-7 8.8-11.9 16.2-13.6 7.5-1.6 14.8.4 20.4 5.6 16.8 15.6 12.3 31.8 4.1 55.3h39.8c8.3 0 15.8 3.6 21.1 10 5.3 6.5 7.3 14.6 5.6 22.7zm-2.4-82.3c2.6 3.2 3.6 7 2.7 11l-14 68.4c-1.3 6.2-6.6 10.6-13 10.6h-94.7l-.1-94.9h7.8c6.2 0 11.5-3.6 13.9-9.3l19.5-46.7c1.2-2.8 3.3-4.6 6.2-5.2 3-.6 5.7.1 8 2.2 10.5 9.8 8.1 18.6-1.1 44.7-.6 1.6-1.2 3.3-1.8 5-.7 2.1-.4 4.5.9 6.4 1.3 1.8 3.4 2.9 5.7 2.9h49.6c4.3.1 7.8 1.7 10.4 4.9zm-133.1-11.2.2 107.3c-1.8 6-5.6 7.8-8.4 7.5-3-.4-6.6-3.3-6.6-10.5v-100.2c0-6.1 2.5-9.8 6.8-10.1h.5c2.8-.1 6.6 1.5 7.5 6zm-122.9-50.2c-1.1.6-2.3.9-3.5.9-1.7 0-3.4-.6-4.7-1.8l-22.8-20.6-26.6 15.4c-2.6 1.5-5.9 1.2-8.2-.9-2.3-2-2.9-5.3-1.7-8.1l12.5-28-22.8-20.3c-2.3-2-3-5.3-1.7-8.1 1.2-2.8 4.1-4.4 7.1-4.1l30.5 3.2 12.4-28.1c1.2-2.8 4.1-4.5 7.1-4.1 3 .3 5.5 2.5 6.1 5.5l6.3 30 30.5 3.1c3 .3 5.5 2.5 6.1 5.5s-.7 6-3.4 7.5l-26.3 15.5 6.5 30c.6 3-.7 6-3.4 7.5zm6.6-117.6c-.9-2.9.1-6.1 2.5-7.8l24.9-18-9.6-29.2c-.9-2.9.1-6.1 2.5-7.8 2.5-1.8 5.8-1.8 8.2 0l24.8 18.1 25-18.3c2.5-1.8 5.8-1.8 8.2 0 2.5 1.8 3.5 5 2.5 7.8l-9.5 29.2 24.9 18c2.5 1.8 3.5 4.9 2.6 7.8s-3.6 4.8-6.7 4.8h-30.7l-9.4 29.2c-.9 2.9-3.6 4.9-6.7 4.9-3 0-5.7-2-6.7-4.8l-9.5-29.2-30.6.1c-3.1 0-5.7-2-6.7-4.8zm170.3 24.9c-98.9 0-179.4 80.5-179.4 179.4 0 99 80.4 179.5 179.4 179.5 98.9 0 179.4-80.5 179.4-179.4 0-99-80.5-179.5-179.4-179.5zm0 328.5c-82.2 0-149.1-66.9-149.1-149.1s66.8-149.1 149.1-149.1 149.1 66.9 149.1 149.1-66.9 149.1-149.1 149.1zm-52.2-413.3c.6-3 3.1-5.2 6.1-5.5l30.5-3.2 6.3-30.1c.6-3 3.1-5.2 6.1-5.5s5.9 1.3 7.1 4.1l12.4 28.1 30.7-3.2c3-.3 5.9 1.3 7.1 4.1s.5 6-1.7 8.1l-22.8 20.5 12.6 28c1.2 2.8.6 6-1.7 8.1-2.3 2-5.6 2.4-8.2.9l-26.6-15.4-22.8 20.6c-1.3 1.2-3 1.8-4.7 1.8-1.2 0-2.4-.3-3.5-.9-2.6-1.5-4-4.6-3.3-7.5l6.4-30-26.6-15.3c-2.7-1.7-4-4.7-3.4-7.7zm125.2 73c-1.5-2.6-1.2-5.9.9-8.2l20.6-22.8-15.4-26.6c-1.5-2.6-1.2-5.9.8-8.2s5.3-2.9 8.1-1.7l28 12.5 20.5-22.9c2-2.3 5.3-3 8.1-1.7 2.8 1.2 4.4 4.1 4.1 7.1l-3.3 30.6 28.1 12.4c2.8 1.2 4.4 4.1 4.1 7.1s-2.5 5.5-5.5 6.1l-30 6.3-3.1 30.7c-.3 3-2.5 5.5-5.5 6.1-.5.1-1 .2-1.5.2-2.5 0-4.8-1.3-6.1-3.5l-15.3-26.6-30 6.5c-3 .6-6-.8-7.6-3.4zm180.7 93.1c-1.8 2.5-4.9 3.5-7.8 2.5l-29.2-9.5-18 24.9c-1.3 1.9-3.5 2.9-5.7 2.9-.7 0-1.4-.1-2.2-.3-2.9-.9-4.8-3.6-4.8-6.7v-30.7l-29.2-9.4c-2.9-.9-4.9-3.6-4.9-6.7 0-3 2-5.7 4.8-6.7l29.2-9.5-.1-30.7c0-3 1.9-5.7 4.8-6.7 2.9-.9 6.1.1 7.8 2.6l18 24.9 29.2-9.6c2.9-.9 6.1.1 7.8 2.5 1.8 2.5 1.8 5.8 0 8.2l-18.1 24.8 18.1 24.8c2 2.6 2 5.9.3 8.4z"/></svg>