<svg id="Layer_1" enable-background="new 0 0 86.397 67.087" viewBox="0 0 86.397 67.087" xmlns="http://www.w3.org/2000/svg"><g id="Layer_2_1_"><g id="Solid"><path d="m31.467 22.5h-2.52l-1.5 1.5h-1.79v-2h4.5c.483.001.949.179 1.31.5z"/><path d="m32.157 27.5v2.5c-.003.169-.026.337-.07.5h-2.72l-.66-.66c.281-.187.45-.502.45-.84v-1.5z"/><path d="m32.157 24v2.5h-3v-1.5c0-.338-.169-.653-.45-.84l.66-.66h2.72c.044.163.067.331.07.5z"/><path d="m24.657 22v2h-1.79l-1.5-1.5h-2.52c.361-.321.827-.499 1.31-.5z"/><path d="m21.607 24.157c-.281.187-.45.502-.45.84v1.5h-3v-2.497c.003-.169.026-.337.07-.5h2.72z"/><path d="m31.467 31.5c-.361.321-.827.499-1.31.5h-4.5v-2h1.79l1.5 1.5z"/><path d="m21.607 29.837-.66.66h-2.72c-.044-.163-.067-.331-.07-.5v-2.497h3v1.5c.001.337.17.65.45.837z"/><path d="m24.657 30v2h-4.5c-.483-.001-.949-.179-1.31-.5h2.52l1.5-1.5z"/><path d="m68.157 41v3h8v-7.02c-2.231-1.646-5.374-1.171-7.02 1.06-.633.857-.976 1.894-.98 2.96zm4-24h-56c-2.209 0-4 1.791-4 4v31c0 2.209 1.791 4 4 4h42v-6c.001-2.139 1.145-4.114 3-5.18v-3.82c.09-6.59 5.41-11.91 12-12 1.013 0 2.022.135 3 .4v-8.4c0-2.209-1.791-4-4-4zm-41 32h-13c-.552 0-1-.448-1-1s.448-1 1-1h13c.552 0 1 .448 1 1s-.448 1-1 1zm-14-7c0-.552.448-1 1-1h6c.552 0 1 .448 1 1s-.448 1-1 1h-6c-.552 0-1-.448-1-1zm17-11c-.005 1.655-1.345 2.995-3 3h-12c-1.655-.005-2.995-1.345-3-3v-8c.005-1.655 1.345-2.995 3-3h12c1.655.005 2.995 1.345 3 3z"/><path d="m23.157 24.747h4c.552 0 1 .448 1 1v2.5c0 .552-.448 1-1 1h-4c-.552 0-1-.448-1-1v-2.5c0-.552.448-1 1-1z"/><path d="m63.137 6.527-25.38 8.473h-21.6c-3.314 0-6 2.686-6 6v3.21l-8.68 2.9-1.27-3.8c-.699-2.096.434-4.361 2.529-5.06h.001l54.07-18.043c2.093-.7 4.357.428 5.06 2.52z"/><path d="m10.167 53.127-5.04-15.08 5.03-1.68v16.633c-.001.043.002.085.01.127z"/><path d="m2.107 28.997 8.05-2.69v7.95l-5.66 1.89z"/><path d="m65.957 14.997h-21.88l19.69-6.57z"/><path d="m83.157 46.074v-5.074c0-5.523-4.477-10-10-10s-10 4.477-10 10v5.142c-1.763.451-2.997 2.038-3 3.858v13.09c0 2.209 1.791 4 4 4h18.243c2.209 0 4-1.791 4-4v-13.09c-.001-1.917-1.361-3.563-3.243-3.926zm-10-12.074c3.824-.042 6.958 3.025 7 6.849.001.05.001.101 0 .151v5h-14v-5c-.041-3.825 3.026-6.959 6.851-7 .05-.001.099-.001.149 0zm.12 28.49c-1.361-.004-2.462-1.109-2.46-2.47-.002-.797.341-1.555.94-2.08v-2.66h3.043v2.8c.601.464.952 1.181.95 1.94-.004 1.363-1.11 2.466-2.473 2.467z"/></g></g></svg>