<svg id="Layer_1" enable-background="new 0 0 510 510" height="512" viewBox="0 0 510 510" width="512" xmlns="http://www.w3.org/2000/svg"><g><g><path d="m90 345c-8.271 0-15 6.728-15 15v60c.756 19.877 29.251 19.862 30 0v-60c0-8.272-6.729-15-15-15z"/><path d="m465 450h-30v-15c0-18.541-5.037-28.614-9.084-36.708-3.435-6.87-5.916-11.833-5.916-23.292s2.481-16.422 5.916-23.292c11.889-20.145 12.139-52.496.269-72.877-116.103 35.294-230.858-77.923-195.016-195.016-20.44-11.901-52.793-11.588-72.877.269-6.87 3.435-11.833 5.916-23.292 5.916v28.3c0 25.792-20.147 46.7-45 46.7h-15v-31.133c0-25.244 19.304-45.797 43.427-46.659-9.835-3.911-19.592-12.208-43.427-12.208h-15v-30c0-24.853-20.147-45-45-45h-15v30c0 24.853 20.147 45 45 45h-.006c-24.81 0-44.994 20.187-44.994 45v390h390c24.814 0 45-20.186 45-45 0 24.853 20.147 45 45 45h30v-15c0-24.853-20.147-45-45-45zm-330-30c-2.269 59.632-87.752 59.586-90 0v-60c2.269-59.632 87.752-59.586 90 0zm90-75h-30v30h30v30h-30v60h-30v-150h60zm90 0h-30v30h30v30h-30v60h-30v-150h60z"/><path d="m465 330h-30v15c0 24.853 20.147 45 45 45h30v-15c0-24.853-20.147-45-45-45z"/><path d="m382.5 255c70.416 0 127.5-57.084 127.5-127.5-6.251-168.944-248.775-168.898-255 .002 0 70.414 57.084 127.498 127.5 127.498zm42.427-63.86-21.214-21.213 21.213-21.214 21.214 21.213zm-84.854-127.28 21.214 21.213-21.213 21.214-21.214-21.213zm84.854 0 21.213 21.213c-4.896 4.896-101.187 101.187-106.066 106.066l-21.213-21.213c4.896-4.895 101.186-101.186 106.066-106.066z"/><path d="m165 75h15v-30c0-24.853-20.147-45-45-45h-15v30c0 24.853 20.147 45 45 45z"/></g></g></svg>