<svg height="512" viewBox="0 0 512 512" width="512" xmlns="http://www.w3.org/2000/svg"><g id="_x31_1_Product"><g id="Product"><circle cx="421" cy="118.5" r="7.5"/><circle cx="393.5" cy="27.346" r="7.5"/><circle cx="88.728" cy="48.5" r="7.5"/><circle cx="77.137" cy="111" r="7.5"/><path d="m308.5 366h-105c-5.514 0-10 4.486-10 10v70c0 5.514 4.486 10 10 10h105c5.514 0 10-4.486 10-10v-70c0-5.514-4.486-10-10-10zm-17.5 70h-70c-4.142 0-7.5-3.358-7.5-7.5s3.358-7.5 7.5-7.5h70c4.142 0 7.5 3.358 7.5 7.5s-3.358 7.5-7.5 7.5zm0-35h-70c-4.142 0-7.5-3.358-7.5-7.5s3.358-7.5 7.5-7.5h70c4.142 0 7.5 3.358 7.5 7.5s-3.358 7.5-7.5 7.5z"/><path d="m502.84 236.756-41.585-70.899c-4.836-8.247-14.643-12.197-23.846-9.611l-39.948 11.233c-2 .562-3.584 2.114-4.139 4.116-5.98 21.533-16.898 41.033-31.457 57.192-1.596 1.771-1.977 4.323-.985 6.49l17.045 37.225c1.82 3.974-1.084 8.498-5.455 8.498h-232.94c-4.371 0-7.275-4.524-5.455-8.498l17.045-37.225c.992-2.167.611-4.719-.985-6.49-14.559-16.16-25.477-35.659-31.457-57.192-.556-2.002-2.14-3.554-4.14-4.116l-39.948-11.233c-9.205-2.585-19.009 1.364-23.846 9.611l-41.585 70.899c-3.244 5.531-4.083 12.249-1.889 18.273 2.322 6.375 7.428 11.142 13.911 13.024l85.491 24.823c2.563.744 4.327 3.093 4.327 5.762v164.862c0 23.472 19.028 42.5 42.5 42.5h205c23.472 0 42.5-19.028 42.5-42.5v-164.862c0-2.669 1.763-5.018 4.327-5.762l85.491-24.823c6.483-1.882 11.59-6.65 13.912-13.026 2.195-6.024 1.355-12.741-1.889-18.271zm-169.34 209.244c0 13.785-11.215 25-25 25h-105c-13.785 0-25-11.215-25-25v-70c0-13.785 11.215-25 25-25h105c13.785 0 25 11.215 25 25z"/><path d="m256 6c-70.304 0-127.5 57.196-127.5 127.5s57.196 127.5 127.5 127.5 127.5-57.196 127.5-127.5-57.196-127.5-127.5-127.5zm70.896 131.189-16.321 15.908c-1.764 1.72-2.568 4.196-2.152 6.624l3.853 22.462c1.457 8.497-1.97 16.923-8.944 21.99-6.975 5.068-16.047 5.722-23.677 1.711l-20.173-10.605c-2.18-1.146-4.784-1.146-6.964 0l-20.172 10.605c-3.319 1.745-6.911 2.606-10.484 2.606-4.642 0-9.252-1.455-13.193-4.318-6.974-5.067-10.401-13.493-8.944-21.989l3.853-22.463c.417-2.428-.388-4.904-2.152-6.624l-16.32-15.908c-6.173-6.018-8.354-14.849-5.689-23.047s9.619-14.062 18.149-15.301l22.554-3.277c2.438-.354 4.544-1.885 5.635-4.094l10.086-20.437c3.813-7.73 11.538-12.532 20.159-12.532s16.346 4.802 20.161 12.533l10.086 20.437c1.09 2.209 3.196 3.739 5.634 4.094l22.554 3.277c8.531 1.239 15.485 7.103 18.149 15.301s.485 17.03-5.688 23.047z"/><path d="m312.278 113.685-22.554-3.277c-7.324-1.064-13.652-5.662-16.928-12.298l-10.086-20.439c-1.289-2.612-3.797-4.171-6.71-4.171s-5.421 1.559-6.71 4.171l-10.086 20.438c-3.276 6.637-9.604 11.235-16.929 12.299l-22.553 3.277c-2.882.419-5.141 2.323-6.041 5.093s-.192 5.638 1.894 7.671l16.32 15.908c5.3 5.167 7.717 12.606 6.466 19.9l-3.853 22.463c-.492 2.871.621 5.606 2.977 7.318 2.355 1.711 5.3 1.925 7.88.569l20.173-10.605c6.552-3.443 14.374-3.443 20.924 0l20.173 10.605c2.578 1.356 5.524 1.143 7.88-.569s3.469-4.448 2.977-7.319l-3.853-22.462c-1.251-7.295 1.166-14.734 6.466-19.901l16.321-15.908c2.085-2.033 2.793-4.901 1.893-7.671s-3.158-4.673-6.041-5.092z"/></g></g></svg>