<svg height="512" viewBox="0 0 64 64" width="512" xmlns="http://www.w3.org/2000/svg"><g id="remove-Delivery-Hand-Logistic-box"><path d="m59.36 46.63a9.022 9.022 0 0 0 -5.16-2.55l-2.84-9.08h1.64a2.006 2.006 0 0 0 2-2v-3.72a2 2 0 0 0 -2.49-1.94l-6.63 1.66h-5.12l-1.16-4.06a4.993 4.993 0 0 0 4.4-4.94v-2h.92a1 1 0 0 0 .99-1.14 8 8 0 1 0 -14.32 5.93 8.029 8.029 0 0 0 .87.97l-1.47 2.55a15.177 15.177 0 0 0 -1.99 7.44v2.25h-1.18a3 3 0 0 0 .18-1v-18a3.009 3.009 0 0 0 -3-3h-18a3.009 3.009 0 0 0 -3 3v18a3.009 3.009 0 0 0 3 3h9.18a2.98 2.98 0 0 0 2.82 4h2.68a11 11 0 0 0 -4.64 8h-5.04v2h4.99l-.01 3a.99.99 0 0 0 1 1h3.02a6 6 0 0 0 12 0h16a6 6 0 0 0 12 0 5.845 5.845 0 0 0 -.35-2h.35a1 1 0 0 0 1-1 8.941 8.941 0 0 0 -2.64-6.37zm-6.36-17.35v3.72h-4.18a2.924 2.924 0 0 0 -.29-2.6zm-9 1.72h2a1 1 0 0 1 0 2h-2.01zm-34-2a1 1 0 0 1 -1-1v-4a1 1 0 0 1 1-1h12a1 1 0 0 1 1 1v4a1 1 0 0 1 -1 1zm9 11a1 1 0 0 1 0-2h10v1a3 3 0 0 0 .18 1zm8 20a4 4 0 0 1 -4-4h3v1h2v-1h3a4 4 0 0 1 -4 4zm10-14h-11a5 5 0 0 0 -5 5v3h-2.02l.01-3.01a9.005 9.005 0 0 1 9-8.99h9.01zm-3.16-14.75 3.19 3.2-.67 1.55h-5.36v-2.24a13.21 13.21 0 0 1 1.73-6.46l1.34-2.34a7.89 7.89 0 0 0 2.79.95.66.66 0 0 0 .14.01 1.023 1.023 0 0 0 .66-.25c.02-.02.03-.05.05-.07l.29 1.03a3.112 3.112 0 0 0 -4.16 4.62zm4.16-13.25h1v2h2v-2h1v2a3.009 3.009 0 0 1 -3 3h-1zm8 36h-7v-2h7zm-7-4v-2h3a1 1 0 0 1 1 1v1zm7.28 0h-1.28v-1a3.014 3.014 0 0 0 -2-2.83v-5.17a5 5 0 0 0 -4.48-4.95l.45-1.05h7.2l1.8 9.93zm3.31 4h-1.59v-2.84l1.95-5.84a1.055 1.055 0 0 0 .03-.5l-1.78-9.82h1.06l4.06 12.99a2.969 2.969 0 0 1 -.74 3.01zm5.41 6a4 4 0 0 1 -4-4 4.452 4.452 0 0 1 .07-.66l1.34-1.34h6.05a3.944 3.944 0 0 1 .54 2 4 4 0 0 1 -4 4z"/><path d="m11 25h10v2h-10z"/><path d="m54 55h2v2h-2z"/><path d="m6 54h9v2h-9z"/><path d="m2 54h2v2h-2z"/><path d="m14 58h6v2h-6z"/><path d="m10 58h2v2h-2z"/><path d="m8 50h2v2h-2z"/><path d="m6 58h2v2h-2z"/><path d="m12 4h9v2h-9z"/><path d="m8 4h2v2h-2z"/><path d="m20 8h6v2h-6z"/><path d="m16 8h2v2h-2z"/><path d="m12 8h2v2h-2z"/></g></svg>