<svg height="512" viewBox="0 0 64 64" width="512" xmlns="http://www.w3.org/2000/svg"><g id="Artboard_25" data-name="Artboard 25"><path d="m58.989 28.043-.895-.65a6.866 6.866 0 0 1 -2.477-7.768l.383-1.142a4.844 4.844 0 0 0 -.707-4.474 4.723 4.723 0 0 0 -4.016-1.962l-.37.011a6.877 6.877 0 0 1 -6.774-5.007l-.14-.5a4.854 4.854 0 0 0 -3.2-3.323 4.748 4.748 0 0 0 -4.5.849 6.861 6.861 0 0 1 -8.586 0 4.752 4.752 0 0 0 -4.5-.849 4.854 4.854 0 0 0 -3.2 3.323l-.14.5a6.862 6.862 0 0 1 -6.767 5.007l-.374-.011a4.705 4.705 0 0 0 -4.014 1.962 4.844 4.844 0 0 0 -.712 4.474l.382 1.142a6.866 6.866 0 0 1 -2.477 7.768l-.895.65a4.9 4.9 0 0 0 0 7.914l.895.65a6.866 6.866 0 0 1 2.477 7.768l-.382 1.142a4.844 4.844 0 0 0 .707 4.474 4.751 4.751 0 0 0 4.016 1.962l.37-.011h.184a6.849 6.849 0 0 1 6.59 5.009l.14.5a4.854 4.854 0 0 0 3.2 3.323 4.745 4.745 0 0 0 4.5-.849 6.861 6.861 0 0 1 8.586 0 4.748 4.748 0 0 0 4.5.849 4.854 4.854 0 0 0 3.2-3.323l.14-.5a6.853 6.853 0 0 1 6.767-5.009l.374.011a4.743 4.743 0 0 0 4.014-1.962 4.844 4.844 0 0 0 .712-4.474l-.382-1.142a6.866 6.866 0 0 1 2.477-7.768l.895-.65a4.9 4.9 0 0 0 0-7.914zm-46.589-12.843a1 1 0 0 1 1.4.2l3 4a1 1 0 1 1 -1.6 1.2l-3-4a1 1 0 0 1 .2-1.4zm4.4 29.4-3 4a1 1 0 0 1 -1.6-1.2l3-4a1 1 0 1 1 1.6 1.2zm-.8-16.195v10.595a1 1 0 0 1 -2 0v-14a1 1 0 0 1 1.841-.541l7.159 11.141v-10.6a1 1 0 0 1 2 0v14a1 1 0 0 1 -.718.959.982.982 0 0 1 -.282.041 1 1 0 0 1 -.841-.459zm8.929 17.966-2 5a1 1 0 1 1 -1.858-.742l2-5a1 1 0 1 1 1.858.742zm-.557-27.442a1 1 0 0 1 -1.3-.558l-2-5a1 1 0 1 1 1.858-.742l2 5a1 1 0 0 1 -.558 1.3zm6.628-7.929a1 1 0 0 1 2 0v6a1 1 0 0 1 -2 0zm2 42a1 1 0 0 1 -2 0v-6a1 1 0 0 1 2 0zm.5-22a1 1 0 0 1 0 2h-3.5v5h5a1 1 0 0 1 0 2h-6a1 1 0 0 1 -1-1v-14a1 1 0 0 1 1-1h6a1 1 0 0 1 0 2h-5v5zm5.571-13.371 2-5a1 1 0 1 1 1.858.742l-2 5a1 1 0 1 1 -1.858-.742zm3.3 34.3a1 1 0 0 1 -1.3-.558l-2-5a1 1 0 1 1 1.858-.742l2 5a1 1 0 0 1 -.557 1.3zm2.129-18.079-3.659 5.691a1 1 0 0 1 -1.841-.541v-14a1 1 0 0 1 2 0v10.6l2.659-4.136a1.039 1.039 0 0 1 1.682 0l2.659 4.136v-10.6a1 1 0 0 1 2 0v14a1 1 0 0 1 -.718.959.982.982 0 0 1 -.282.041 1 1 0 0 1 -.841-.459zm7.1 14.95a1 1 0 0 1 -1.4-.2l-3-4a1 1 0 0 1 1.6-1.2l3 4a1 1 0 0 1 -.2 1.4zm.2-32.2-3 4a1 1 0 0 1 -1.6-1.2l3-4a1 1 0 1 1 1.6 1.2z"/></g><g id="TEXT"><text font-family="MyriadPro-Regular, Myriad Pro" font-size="10" transform="translate(22.525 71.891)">New</text></g></svg>