<svg id="OBJECT" height="512" viewBox="0 0 32 32" width="512" xmlns="http://www.w3.org/2000/svg"><path d="m9.42 9.81a1 1 0 0 0 .9.14l2.68-.9 2.68.9a1.19 1.19 0 0 0 .32.05.94.94 0 0 0 .58-.19 1 1 0 0 0 .42-.81v-8h-8v8a1 1 0 0 0 .42.81z"/><path d="m25 2a1 1 0 0 0 -1-1h-5v4h6z"/><path d="m7 1h-5a1 1 0 0 0 -1 1v3h6z"/><path d="m22 11a11 11 0 0 1 2 .19v-4.19h-5v2a3 3 0 0 1 -3.94 2.85l-2.06-.69-2 .69a3.14 3.14 0 0 1 -1 .15 3 3 0 0 1 -3-3v-2h-5v13a1 1 0 0 0 1 1h8.05a11 11 0 0 1 10.95-10zm-17 2h3v2h-3zm6 5h-6v-2h6z"/><path d="m22 13a9 9 0 1 0 9 9 9 9 0 0 0 -9-9zm2 13h-2v-2h2a1 1 0 0 0 0-2h-3.59l1 1-1.41 1.41-2.71-2.7a1 1 0 0 1 0-1.42l2.71-2.7 1.41 1.41-1 1h3.59a3 3 0 0 1 0 6z"/></svg>