<svg id="Layer_1" enable-background="new 0 0 512 512" viewBox="0 0 512 512" xmlns="http://www.w3.org/2000/svg"><path clip-rule="evenodd" d="m194.33 143.35-40.11 19.76c-8.84 4.34-18.62 4.68-27.27 1.73-7.17-2.44-13.61-7.14-18.06-13.72l63.16-31.1c4.11 10.09 11.93 18.57 22.28 23.33zm-104.49-1.25 78.92-38.83c0-3.71.48-7.48 1.47-11.23 6.24-23.3 30.56-37.33 53.86-31.1l77.7 20.81c4.39 1.19 7 5.73 5.84 10.09-1.19 4.39-5.73 7-10.09 5.84l-77.7-20.83c-13.98-3.74-28.43 4.11-33.11 17.57-5.16 14.97 3.43 31.41 18.85 35.55 49.21 13.18 98.39 26.36 147.6 39.54 20.92 5.61 41.02 2.69 59.5-8.67l21.34-13.1-31.97-106.72-122.17-32.74c-18.51-4.96-36.06-3.23-53.26 5.24-53.69 26.42-107.38 52.84-161.07 79.26-13.55 6.69-19.19 23.25-12.53 36.79 6.66 13.53 23.3 19.2 36.82 12.53zm421.34 1.02-41.18-137.5c-1.13-3.77-5.16-5.95-8.96-4.82l-42.49 12.73c-3.8 1.13-5.95 5.19-4.82 8.96l41.19 137.51c1.13 3.8 5.16 5.95 8.96 4.82l42.49-12.73c3.79-1.14 5.98-5.17 4.81-8.97zm-171.21 248.86 63.16-31.1c-4.48-6.58-10.89-11.28-18.08-13.72-8.65-2.95-18.43-2.61-27.27 1.73l-40.08 19.76c10.34 4.73 18.13 13.24 22.27 23.33zm82.18-22.08-78.89 38.83c-.03 3.71-.48 7.48-1.5 11.23-6.24 23.3-30.56 37.33-53.86 31.1l-77.7-20.81c-4.37-1.19-7-5.73-5.81-10.09 1.16-4.39 5.7-7 10.09-5.84l77.7 20.81c13.98 3.77 28.43-4.08 33.08-17.55 5.19-14.97-3.43-31.41-18.85-35.55-49.21-13.18-98.39-26.36-147.57-39.54-20.95-5.61-41.05-2.69-59.53 8.65l-21.34 13.12 31.97 106.72 122.17 32.74c18.54 4.96 36.08 3.23 53.29-5.24 53.66-26.42 107.35-52.84 161.04-79.26 13.58-6.69 19.19-23.24 12.53-36.82-6.66-13.5-23.3-19.17-36.82-12.5zm-365.05-17.89c-1.13-3.8-5.19-5.98-8.96-4.85l-42.52 12.76c-3.8 1.13-5.95 5.16-4.82 8.96l41.19 137.48c1.13 3.8 5.16 5.98 8.96 4.85l42.49-12.73c3.8-1.13 5.98-5.19 4.85-8.96zm278.25-96.01c0-43.82-35.55-79.34-79.34-79.34-43.82 0-79.34 35.52-79.34 79.34 0 17.29 5.53 33.28 14.91 46.32 3.71-12.42 10.91-23.3 20.44-31.55-3.57-6.86-5.58-14.63-5.58-22.88 0-27.38 22.2-49.58 49.58-49.58 27.35 0 49.58 22.2 49.58 49.58 0 8.25-2.04 16.02-5.61 22.88 9.52 8.25 16.72 19.13 20.44 31.55 9.36-13.04 14.92-29.03 14.92-46.32zm-129.91 61.14c13.75 11.37 31.35 18.2 50.57 18.2 19.19 0 36.82-6.83 50.54-18.2-1.13-13.1-7.28-24.8-16.55-33.19-8.87 8.36-20.83 13.52-33.99 13.52-13.18 0-25.14-5.16-34.02-13.52-9.24 8.39-15.42 20.1-16.55 33.19zm83.65-69.25c0-18.28-14.83-33.11-33.08-33.11-18.28 0-33.11 14.83-33.11 33.11 0 18.26 14.83 33.08 33.11 33.08 18.25 0 33.08-14.82 33.08-33.08zm182.41-5.21-29.59.06-9.07-28.18c-.71-2.15-2.64-3.54-4.9-3.54-2.27 0-4.2 1.39-4.9 3.54l-9.1 28.18-29.57-.06c-2.27-.03-4.22 1.39-4.9 3.54-.71 2.15.03 4.42 1.87 5.75l23.95 17.35-9.18 28.12c-.71 2.15.03 4.45 1.87 5.78s4.22 1.33 6.07-.03l23.9-17.43 23.9 17.43c1.84 1.36 4.22 1.36 6.07.03 1.84-1.33 2.58-3.63 1.87-5.78l-9.21-28.12 23.98-17.35c1.84-1.33 2.58-3.6 1.87-5.75-.74-2.15-2.66-3.57-4.93-3.54zm-434.01 9.29 23.95 17.35-9.18 28.12c-.71 2.15.03 4.45 1.84 5.78 1.84 1.33 4.25 1.33 6.07-.03l23.9-17.43 23.92 17.43c1.81 1.36 4.22 1.36 6.04.03 1.84-1.33 2.58-3.63 1.87-5.78l-9.18-28.12 23.95-17.35c1.84-1.33 2.58-3.6 1.9-5.75-.71-2.15-2.64-3.57-4.9-3.54l-29.59.06-9.1-28.18c-.68-2.15-2.61-3.54-4.9-3.54-2.27 0-4.2 1.39-4.88 3.54l-9.1 28.18-29.59-.06c-2.27-.03-4.2 1.39-4.9 3.54-.73 2.15.03 4.42 1.88 5.75z" fill-rule="evenodd"/></svg>